REM DIRINDEX 1\2\5,1\2\6,1\2\7,1\2\8,1\3\9,1\3\10,1\3\11,1\4\12,1\4\13,1\4\14,1\4\15,1\4\16
REM DIRNAME folder01,folder02,folder03,folder04,folder05,folder06,folder07,folder08,folder09,folder10,folder11,folder12,folder13,folder14,folder15,folder16
TITLE ""
FILE "1200_sec03_0943_0950.mp3" MP3
  TRACK 01 AUDIO
    TITLE "0:"
    INDEX 01 00:00:00
  TRACK 02 AUDIO
    TITLE "16:cjc034_07449"
    INDEX 01 00:00:19
  TRACK 03 AUDIO
    TITLE "0:"
    INDEX 01 00:04:72
  TRACK 04 AUDIO
    TITLE "12:cjc034_07450"
    INDEX 01 00:06:00
  TRACK 05 AUDIO
    TITLE "0:"
    INDEX 01 00:07:11
  TRACK 06 AUDIO
    TITLE "13:cjc034_07451"
    INDEX 01 00:07:41
  TRACK 07 AUDIO
    TITLE "0:"
    INDEX 01 00:10:70
  TRACK 08 AUDIO
    TITLE "14:cjc034_07452"
    INDEX 01 00:11:27
  TRACK 09 AUDIO
    TITLE "0:"
    INDEX 01 00:12:36
  TRACK 10 AUDIO
    TITLE "15:cjc034_07453"
    INDEX 01 00:12:67
  TRACK 11 AUDIO
    TITLE "0:"
    INDEX 01 00:17:27
  TRACK 12 AUDIO
    TITLE "12:cjc034_07454"
    INDEX 01 00:18:64
  TRACK 13 AUDIO
    TITLE "0:"
    INDEX 01 00:19:69
  TRACK 14 AUDIO
    TITLE "13:cjc034_07455"
    INDEX 01 00:20:28
  TRACK 15 AUDIO
    TITLE "0:"
    INDEX 01 00:23:59
  TRACK 16 AUDIO
    TITLE "14:cjc034_07456"
    INDEX 01 00:24:20
  TRACK 17 AUDIO
    TITLE "0:"
    INDEX 01 00:25:27
  TRACK 18 AUDIO
    TITLE "15:cjc034_07457"
    INDEX 01 00:25:58
  TRACK 19 AUDIO
    TITLE "0:"
    INDEX 01 00:29:19
  TRACK 20 AUDIO
    TITLE "12:cjc034_07458"
    INDEX 01 00:30:52
  TRACK 21 AUDIO
    TITLE "0:"
    INDEX 01 00:31:61
  TRACK 22 AUDIO
    TITLE "13:cjc034_07459"
    INDEX 01 00:32:23
  TRACK 23 AUDIO
    TITLE "0:"
    INDEX 01 00:33:11
  TRACK 24 AUDIO
    TITLE "14:cjc034_07460"
    INDEX 01 00:33:44
  TRACK 25 AUDIO
    TITLE "0:"
    INDEX 01 00:34:55
  TRACK 26 AUDIO
    TITLE "15:cjc034_07461"
    INDEX 01 00:35:15
  TRACK 27 AUDIO
    TITLE "0:"
    INDEX 01 00:39:19
  TRACK 28 AUDIO
    TITLE "12:cjc034_07462"
    INDEX 01 00:40:54
  TRACK 29 AUDIO
    TITLE "0:"
    INDEX 01 00:41:69
  TRACK 30 AUDIO
    TITLE "13:cjc034_07463"
    INDEX 01 00:42:39
  TRACK 31 AUDIO
    TITLE "0:"
    INDEX 01 00:44:01
  TRACK 32 AUDIO
    TITLE "14:cjc034_07464"
    INDEX 01 00:44:36
  TRACK 33 AUDIO
    TITLE "0:"
    INDEX 01 00:45:51
  TRACK 34 AUDIO
    TITLE "15:cjc034_07465"
    INDEX 01 00:46:19
  TRACK 35 AUDIO
    TITLE "0:"
    INDEX 01 00:49:41
  TRACK 36 AUDIO
    TITLE "12:cjc034_07466"
    INDEX 01 00:51:05
  TRACK 37 AUDIO
    TITLE "0:"
    INDEX 01 00:52:12
  TRACK 38 AUDIO
    TITLE "13:cjc034_07467"
    INDEX 01 00:52:43
  TRACK 39 AUDIO
    TITLE "0:"
    INDEX 01 00:54:70
  TRACK 40 AUDIO
    TITLE "14:cjc034_07468"
    INDEX 01 00:55:32
  TRACK 41 AUDIO
    TITLE "0:"
    INDEX 01 00:56:37
  TRACK 42 AUDIO
    TITLE "15:cjc034_07469"
    INDEX 01 00:56:71
  TRACK 43 AUDIO
    TITLE "0:"
    INDEX 01 01:01:25
  TRACK 44 AUDIO
    TITLE "12:cjc034_07470"
    INDEX 01 01:02:57
  TRACK 45 AUDIO
    TITLE "0:"
    INDEX 01 01:03:71
  TRACK 46 AUDIO
    TITLE "13:cjc034_07471"
    INDEX 01 01:04:33
  TRACK 47 AUDIO
    TITLE "0:"
    INDEX 01 01:05:24
  TRACK 48 AUDIO
    TITLE "14:cjc034_07472"
    INDEX 01 01:05:56
  TRACK 49 AUDIO
    TITLE "0:"
    INDEX 01 01:06:69
  TRACK 50 AUDIO
    TITLE "15:cjc034_07473"
    INDEX 01 01:07:29
  TRACK 51 AUDIO
    TITLE "0:"
    INDEX 01 01:10:41
  TRACK 52 AUDIO
    TITLE "12:cjc034_07474"
    INDEX 01 01:11:72
  TRACK 53 AUDIO
    TITLE "0:"
    INDEX 01 01:13:08
  TRACK 54 AUDIO
    TITLE "13:cjc034_07475"
    INDEX 01 01:13:40
  TRACK 55 AUDIO
    TITLE "0:"
    INDEX 01 01:16:44
  TRACK 56 AUDIO
    TITLE "14:cjc034_07476"
    INDEX 01 01:16:73
  TRACK 57 AUDIO
    TITLE "0:"
    INDEX 01 01:18:09
  TRACK 58 AUDIO
    TITLE "15:cjc034_07477"
    INDEX 01 01:18:41
  TRACK 59 AUDIO
    TITLE "0:"
    INDEX 01 01:21:61
  TRACK 60 AUDIO
    TITLE "12:cjc034_07478"
    INDEX 01 01:23:18
  TRACK 61 AUDIO
    TITLE "0:"
    INDEX 01 01:24:32
  TRACK 62 AUDIO
    TITLE "13:cjc034_07479"
    INDEX 01 01:24:67
  TRACK 63 AUDIO
    TITLE "0:"
    INDEX 01 01:26:07
  TRACK 64 AUDIO
    TITLE "14:cjc034_07480"
    INDEX 01 01:26:40
  TRACK 65 AUDIO
    TITLE "0:"
    INDEX 01 01:27:55
  TRACK 66 AUDIO
    TITLE "15:cjc034_07481"
    INDEX 01 01:28:16
  TRACK 67 AUDIO
    TITLE "0:"
    INDEX 01 01:33:60
